PathFileType	3	(X/Y/Z)	running_2__view2_aligned.trc
DataRate	CameraRate	NumFrames	NumMarkers	Units	OrigDataRate	OrigDataStartFrame	OrigNumFrames
100.0	100.0	15	19	mm	100.0	2610	6434
Frame#	Time	pelvis			neck			head			hip_left			hip_right			knee_left			knee_right			ankle_left			ankle_right			heel_left			heel_right			toe_left			toe_right			shoulder_left			shoulder_right			elbow_left			elbow_right			wrist_left			wrist_right			
		X1	Y1	Z1	X2	Y2	Z2	X3	Y3	Z3	X4	Y4	Z4	X5	Y5	Z5	X6	Y6	Z6	X7	Y7	Z7	X8	Y8	Z8	X9	Y9	Z9	X10	Y10	Z10	X11	Y11	Z11	X12	Y12	Z12	X13	Y13	Z13	X14	Y14	Z14	X15	Y15	Z15	X16	Y16	Z16	X17	Y17	Z17	X18	Y18	Z18	X19	Y19	Z19	
2610	26.09000	66.204746	940.016110	232.514239	48.565711	1492.408179	349.661476	42.336785	1580.050294	493.962526	139.821637	942.904303	227.137690	-7.412145	937.127906	237.890775	169.012357	522.914535	259.583454	-32.667258	529.188448	343.531931	145.032624	155.423623	111.991756	-52.516920	226.477151	134.925693	134.410745	120.306175	71.022022	-52.441127	206.024469	88.434447	154.580653	56.862753	253.474545	-55.198938	100.517148	239.888260	215.001970	1455.443101	300.649024	-117.143786	1450.041334	308.695821	316.356573	1223.173603	190.781886	-201.694707	1222.496795	184.590426	251.522202	1119.838243	371.807685	-121.730325	1084.067392	334.069496
2611	26.10000	64.144395	939.281468	231.779686	45.507232	1491.536002	348.823940	38.532101	1578.999179	493.216723	137.731307	942.156340	226.468133	-9.442517	936.406578	237.091228	167.717750	521.262130	255.106632	-31.934945	528.612830	349.090435	144.700908	160.441072	96.826891	-50.561447	222.021039	147.118195	134.097245	127.151972	54.940369	-50.641137	200.303732	101.281857	154.429745	56.500569	232.966291	-51.969121	99.844261	255.480086	212.817468	1454.694813	301.299596	-120.164490	1448.828625	306.527532	315.145621	1221.489936	193.455146	-205.618240	1222.213436	179.928039	247.386301	1119.159147	374.580752	-128.747702	1078.658176	329.513172
2612	26.11000	62.084045	938.546825	231.045132	42.448752	1490.663825	347.986403	34.727416	1577.948064	492.470920	135.640977	941.408376	225.798575	-11.472889	935.685250	236.291680	166.423143	519.609725	250.629810	-31.202632	528.037213	354.648939	144.369192	165.458521	81.662026	-48.605974	217.564926	159.310696	133.783744	133.997769	38.858716	-48.841147	194.582994	114.129266	154.278838	56.138384	212.458036	-48.739303	99.171374	271.071911	210.632967	1453.946525	301.950168	-123.185193	1447.615916	304.359242	313.934669	1219.806268	196.128406	-209.541772	1221.930078	175.265651	243.250401	1118.480051	377.353820	-135.765079	1073.248959	324.956848
2613	26.12000	60.023694	937.812183	230.310579	39.390272	1489.791648	347.148866	30.922731	1576.896949	491.725117	133.550648	940.660413	225.129017	-13.503261	934.963923	235.492133	165.128535	517.957320	246.152988	-30.470318	527.461595	360.207442	144.037476	170.475970	66.497162	-46.650501	213.108814	171.503198	133.470244	140.843566	22.777062	-47.041158	188.862257	126.976676	154.127930	55.776200	191.949782	-45.509486	98.498487	286.663736	208.448465	1453.198238	302.600739	-126.205897	1446.403207	302.190952	312.723717	1218.122601	198.801666	-213.465305	1221.646720	170.603264	239.114501	1117.800956	380.126887	-142.782456	1067.839743	320.400524
2614	26.13000	57.963344	937.077540	229.576026	36.331792	1488.919471	346.311329	27.118046	1575.845834	490.979314	131.460318	939.912449	224.459459	-15.533633	934.242595	234.692586	163.833928	516.304915	241.676166	-29.738005	526.885977	365.765946	143.705760	175.493419	51.332297	-44.695028	208.652702	183.695700	133.156743	147.689363	6.695409	-45.241168	183.141520	139.824085	153.977023	55.414015	171.441528	-42.279668	97.825599	302.255562	206.263963	1452.449950	303.251311	-129.226601	1445.190499	300.022662	311.512765	1216.438934	201.474926	-217.388838	1221.363361	165.940877	234.978600	1117.121860	382.899955	-149.799833	1062.430526	315.844201
2615	26.14000	55.902993	936.342897	228.841473	33.273313	1488.047294	345.473792	23.313361	1574.794719	490.233511	129.369988	939.164486	223.789902	-17.564005	933.521267	233.893038	162.539321	514.652509	237.199345	-29.005692	526.310360	371.324450	143.374043	180.510868	36.167432	-42.739555	204.196590	195.888201	132.843243	154.535160	-9.386245	-43.441178	177.420783	152.671494	153.826115	55.051831	150.933274	-39.049851	97.152712	317.847387	204.079462	1451.701663	303.901883	-132.247304	1443.977790	297.854373	310.301812	1214.755267	204.148186	-221.312371	1221.080003	161.278490	230.842700	1116.442764	385.673022	-156.817210	1057.021310	311.287877
2616	26.15000	53.842643	935.608255	228.106919	30.214833	1487.175117	344.636255	19.508677	1573.743604	489.487708	127.279659	938.416523	223.120344	-19.594377	932.799939	233.093491	161.244714	513.000104	232.722523	-28.273378	525.734742	376.882954	143.042327	185.528317	21.002568	-40.784082	199.740477	208.080703	132.529743	161.380957	-25.467898	-41.641189	171.700046	165.518904	153.675207	54.689646	130.425020	-35.820034	96.479825	333.439212	201.894960	1450.953375	304.552455	-135.268008	1442.765081	295.686083	309.090860	1213.071599	206.821446	-225.235904	1220.796644	156.616102	226.706800	1115.763668	388.446090	-163.834587	1051.612093	306.731553
2617	26.16000	51.782292	934.873612	227.372366	27.156353	1486.302940	343.798719	15.703992	1572.692489	488.741905	125.189329	937.668559	222.450786	-21.624749	932.078612	232.293943	159.950107	511.347699	228.245701	-27.541065	525.159125	382.441458	142.710611	190.545766	5.837703	-38.828609	195.284365	220.273204	132.216242	168.226754	-41.549551	-39.841199	165.979309	178.366313	153.524300	54.327461	109.916766	-32.590216	95.806938	349.031037	199.710459	1450.205088	305.203026	-138.288712	1441.552373	293.517793	307.879908	1211.387932	209.494706	-229.159436	1220.513286	151.953715	222.570900	1115.084573	391.219157	-170.851964	1046.202877	302.175229
2618	26.17000	49.721942	934.138969	226.637813	24.097874	1485.430763	342.961182	11.899307	1571.641375	487.996102	123.098999	936.920596	221.781228	-23.655121	931.357284	231.494396	158.655499	509.695294	223.768879	-26.808751	524.583507	387.999962	142.378895	195.563215	-9.327162	-36.873136	190.828253	232.465706	131.902742	175.072551	-57.631205	-38.041209	160.258572	191.213723	153.373392	53.965277	89.408512	-29.360399	95.134051	364.622863	197.525957	1449.456800	305.853598	-141.309416	1440.339664	291.349503	306.668956	1209.704265	212.167965	-233.082969	1220.229928	147.291328	218.434999	1114.405477	393.992224	-177.869341	1040.793660	297.618905
2619	26.18000	48.052793	934.923034	225.725743	22.106151	1486.169137	342.537069	9.719447	1572.081200	487.790411	121.435561	937.615171	221.103000	-25.330004	932.230846	230.348479	158.180341	510.489795	223.510346	-27.657003	525.282571	387.192276	143.234598	199.527511	-16.675699	-37.078023	186.617288	237.460716	132.919534	180.087559	-65.687993	-38.268620	154.513747	196.647844	153.983098	54.437640	79.270592	-30.332804	94.595261	374.150353	195.762136	1450.462269	305.439255	-143.535071	1440.880744	290.789517	305.131915	1211.006240	211.174933	-234.814506	1220.144214	147.364989	217.493225	1114.365592	392.348955	-179.297586	1041.113874	297.817352
2620	26.19000	46.383644	935.707098	224.813672	20.114428	1486.907510	342.112956	7.539587	1572.521025	487.584720	119.772123	938.309746	220.424772	-27.004886	933.104408	229.202563	157.705183	511.284297	223.251812	-28.505254	525.981636	386.384590	144.090301	203.491807	-24.024235	-37.282910	182.406323	242.455725	133.936327	185.102567	-73.744781	-38.496031	148.768922	202.081966	154.592803	54.910004	69.132673	-31.305208	94.056471	383.677843	193.998314	1451.467739	305.024912	-145.760727	1441.421824	290.229530	303.594873	1212.308215	210.181901	-236.546044	1220.058500	147.438651	216.551450	1114.325708	390.705685	-180.725830	1041.434087	298.015799
2621	26.20000	44.714495	936.491163	223.901602	18.122706	1487.645884	341.688843	5.359727	1572.960850	487.379029	118.108684	939.004321	219.746544	-28.679769	933.977970	228.056646	157.230024	512.078798	222.993279	-29.353506	526.680700	385.576904	144.946004	207.456103	-31.372772	-37.487797	178.195358	247.450735	134.953119	190.117574	-81.801570	-38.723442	143.024096	207.516088	155.202509	55.382367	58.994753	-32.277613	93.517681	393.205333	192.234492	1452.473208	304.610569	-147.986383	1441.962904	289.669543	302.057832	1213.610190	209.188868	-238.277581	1219.972786	147.512313	215.609675	1114.285823	389.062415	-182.154074	1041.754301	298.214246
2622	26.21000	43.045346	937.275227	222.989532	16.130983	1488.384257	341.264731	3.179867	1573.400675	487.173338	116.445246	939.698896	219.068316	-30.354651	934.851532	226.910729	156.754866	512.873299	222.734745	-30.201757	527.379764	384.769218	145.801708	211.420400	-38.721309	-37.692684	173.984393	252.445744	135.969911	195.132582	-89.858358	-38.950853	137.279271	212.950210	155.812215	55.854730	48.856834	-33.250018	92.978891	402.732824	190.470670	1453.478678	304.196226	-150.212038	1442.503984	289.109556	300.520791	1214.912165	208.195836	-240.009118	1219.887073	147.585974	214.667901	1114.245938	387.419146	-183.582319	1042.074514	298.412693
2623	26.22000	41.376197	938.059292	222.077461	14.139261	1489.122631	340.840618	1.000008	1573.840500	486.967647	114.781808	940.393471	218.390088	-32.029533	935.725094	225.764812	156.279707	513.667800	222.476212	-31.050009	528.078828	383.961532	146.657411	215.384696	-46.069846	-37.897571	169.773428	257.440754	136.986704	200.147590	-97.915147	-39.178263	131.534446	218.384332	156.421920	56.327094	38.718914	-34.222423	92.440102	412.260314	188.706849	1454.484147	303.781883	-152.437694	1443.045064	288.549570	298.983750	1216.214140	207.202804	-241.740656	1219.801359	147.659636	213.726126	1114.206053	385.775876	-185.010563	1042.394728	298.611140
2624	26.23000	39.707048	938.843356	221.165391	12.147538	1489.861004	340.416505	-1.179852	1574.280326	486.761956	113.118369	941.088047	217.711860	-33.704416	936.598656	224.618896	155.804549	514.462302	222.217678	-31.898260	528.777892	383.153846	147.513114	219.348992	-53.418382	-38.102457	165.562463	262.435763	138.003496	205.162598	-105.971935	-39.405674	125.789620	223.818454	157.031626	56.799457	28.580995	-35.194828	91.901312	421.787804	186.943027	1455.489616	303.367540	-154.663350	1443.586144	287.989583	297.446709	1217.516115	206.209771	-243.472193	1219.715645	147.733298	212.784351	1114.166169	384.132606	-186.438808	1042.714941	298.809587
